# xmcd
#
# Track frame offsets: 
#        150
#        16778
#        30725
#        42760
#        53687
#        66222
#        76978
#        90690
#        101529
#        113826
#        125697
#        142038
#        154109
#        170944
#        182224
#        193645
#
# Disc length: 2755 seconds
#
# Revision: 0
# Processed by: cddbd v1.5.2PL0 Copyright (c) Steve Scherf et al.
# Submitted via: ExactAudioCopy v1.0b4
#
DISCID=d80ac110
DTITLE=Nancy Sinatra - Nancy Sinatra and Friends
DYEAR=1900
DGENRE=
TTITLE0=Nancy Sinatra and Lee Hazlewood - Summerwine
TTITLE1=So Long Babe
TTITLE2=Nancy Sinatra and Frank Sinatra - Something Stupid
TTITLE3=Friday's Child
TTITLE4=Nancy Sinatra and Lee Hazlewood - Jackson
TTITLE5=Sugar Town
TTITLE6=Nancy Sinatra and Lee Hazlewood - Lady Bird
TTITLE7=Tony Rome
TTITLE8=Nancy Sinatra and Dean Martin - Things
TTITLE9=In Out Time
TTITLE10=Nancy Sinatra and Lee Hazlewood - Some Velvet Morning
TTITLE11=These Boots Are Made For Walking
TTITLE12=Nancy Sinatra and Lee Hazlewood - Sand
TTITLE13=How Does That Grab You, Darling
TTITLE14=Nancy Sinatra and Lee Hazlewood - Greenwich Village Folksong Sa
TTITLE14=lesman
TTITLE15=You Only Live Twice
EXTD=
EXTT0=
EXTT1=
EXTT2=
EXTT3=
EXTT4=
EXTT5=
EXTT6=
EXTT7=
EXTT8=
EXTT9=
EXTT10=
EXTT11=
EXTT12=
EXTT13=
EXTT14=
EXTT15=
PLAYORDER=
